<svg xmlns="http://www.w3.org/2000/svg" xmlns:xlink="http://www.w3.org/1999/xlink" width="500" zoomAndPan="magnify" viewBox="0 0 375 374.999991" height="500" preserveAspectRatio="xMidYMid meet" version="1.2"><defs><clipPath id="df874547ba"><path d="M 56 35.773438 L 320 35.773438 L 320 339.523438 L 56 339.523438 Z M 56 35.773438 "/></clipPath></defs><g id="bc11a2344c"><g clip-rule="nonzero" clip-path="url(#df874547ba)"><path style=" stroke:none;fill-rule:evenodd;fill:#000000;fill-opacity:1;" d="M 187.871094 122.664062 L 88.777344 122.664062 L 103.835938 312.21875 C 103.855469 312.496094 103.859375 312.773438 103.851562 313.050781 C 104 316.519531 105.058594 319.242188 107.023438 321.203125 C 109.234375 323.414062 112.710938 324.953125 117.460938 325.832031 L 258.28125 325.832031 C 263.03125 324.957031 266.511719 323.414062 268.722656 321.203125 C 270.761719 319.164062 271.828125 316.296875 271.910156 312.617188 C 271.910156 312.484375 271.917969 312.347656 271.929688 312.21875 L 271.910156 312.21875 L 286.96875 122.664062 Z M 128.164062 168.960938 C 127.867188 165.207031 130.675781 161.925781 134.425781 161.632812 C 138.183594 161.335938 141.464844 164.144531 141.757812 167.894531 L 150.628906 279.539062 C 150.925781 283.292969 148.121094 286.570312 144.363281 286.867188 C 140.609375 287.160156 137.328125 284.355469 137.03125 280.605469 Z M 233.984375 167.894531 C 234.277344 164.140625 237.558594 161.335938 241.316406 161.632812 C 245.070312 161.925781 247.875 165.207031 247.582031 168.960938 L 238.710938 280.605469 C 238.417969 284.359375 235.136719 287.164062 231.378906 286.867188 C 227.625 286.570312 224.820312 283.289062 225.113281 279.539062 Z M 181.046875 168.425781 C 181.046875 164.660156 184.105469 161.605469 187.871094 161.605469 C 191.640625 161.605469 194.699219 164.660156 194.699219 168.425781 L 194.699219 280.070312 C 194.699219 283.839844 191.640625 286.898438 187.871094 286.898438 C 184.101562 286.898438 181.046875 283.839844 181.046875 280.070312 Z M 256.835938 83.621094 L 80.539062 83.621094 C 77.824219 83.621094 75.3125 84.925781 73.453125 87.035156 C 71.394531 89.363281 70.117188 92.648438 70.117188 96.320312 L 70.117188 109.019531 L 305.625 109.019531 L 305.625 96.320312 C 305.625 92.648438 304.347656 89.363281 302.292969 87.035156 C 300.429688 84.929688 297.917969 83.621094 295.207031 83.621094 Z M 80.539062 69.96875 L 144.457031 69.96875 L 144.457031 67.75 C 144.457031 59.808594 146.121094 52.453125 148.808594 47.003906 C 152.207031 40.101562 157.429688 35.816406 163.648438 35.816406 L 212.097656 35.816406 C 218.316406 35.816406 223.539062 40.105469 226.9375 47.003906 C 229.621094 52.457031 231.292969 59.8125 231.292969 67.753906 L 231.292969 69.972656 L 295.210938 69.972656 C 301.980469 69.972656 308.09375 73.058594 312.484375 78.027344 C 316.679688 82.777344 319.285156 89.261719 319.285156 96.320312 L 319.285156 115.84375 C 319.285156 119.613281 316.226562 122.667969 312.457031 122.667969 L 300.65625 122.667969 L 285.511719 313.289062 L 285.5 313.289062 C 285.261719 320.496094 282.886719 326.351562 278.378906 330.855469 C 274.132812 335.097656 268.148438 337.910156 260.425781 339.285156 C 259.90625 339.414062 259.359375 339.484375 258.800781 339.484375 L 116.945312 339.484375 L 116.945312 339.46875 C 116.574219 339.46875 116.199219 339.4375 115.824219 339.375 C 107.855469 338.027344 101.703125 335.191406 97.367188 330.855469 C 92.894531 326.390625 90.523438 320.597656 90.253906 313.480469 L 90.234375 313.289062 L 75.085938 122.667969 L 63.289062 122.667969 C 59.515625 122.667969 56.464844 119.613281 56.464844 115.84375 L 56.464844 96.320312 C 56.464844 89.257812 59.070312 82.777344 63.261719 78.027344 C 67.65625 73.058594 73.765625 69.96875 80.539062 69.96875 Z M 158.105469 69.96875 L 217.632812 69.96875 L 217.632812 67.75 C 217.632812 61.878906 216.515625 56.671875 214.71875 53.027344 C 213.640625 50.828125 212.675781 49.460938 212.097656 49.460938 L 163.644531 49.460938 C 163.0625 49.460938 162.101562 50.828125 161.019531 53.027344 C 159.222656 56.671875 158.105469 61.878906 158.105469 67.75 Z M 158.105469 69.96875 "/></g></g></svg>