<svg xmlns="http://www.w3.org/2000/svg" xmlns:xlink="http://www.w3.org/1999/xlink" width="500" zoomAndPan="magnify" viewBox="0 0 375 374.999991" height="500" preserveAspectRatio="xMidYMid meet" version="1.2"><defs><clipPath id="205f85a2f6"><path d="M 38 63 L 312 63 L 312 337.5 L 38 337.5 Z M 38 63 "/></clipPath></defs><g id="6e6af0ece3"><g clip-rule="nonzero" clip-path="url(#205f85a2f6)"><path style=" stroke:none;fill-rule:nonzero;fill:#000000;fill-opacity:1;" d="M 101.285156 63.972656 C 66.511719 63.972656 38.199219 92.335938 38.199219 127.054688 L 38.199219 274.25 C 38.199219 309.023438 66.511719 337.335938 101.285156 337.335938 L 248.480469 337.335938 C 283.253906 337.335938 311.566406 309.023438 311.566406 274.25 L 311.566406 211.167969 C 311.566406 205.363281 306.855469 200.652344 301.050781 200.652344 C 295.246094 200.652344 290.539062 205.363281 290.539062 211.167969 L 290.539062 274.25 C 290.539062 297.742188 271.972656 316.308594 248.480469 316.308594 L 101.285156 316.308594 C 77.847656 316.308594 59.230469 297.742188 59.230469 274.25 L 59.230469 127.054688 C 59.230469 103.617188 77.847656 85 101.285156 85 L 164.371094 85 C 170.171875 85 174.882812 80.289062 174.882812 74.484375 C 174.882812 68.679688 170.171875 63.972656 164.371094 63.972656 Z M 101.285156 63.972656 "/></g><path style=" stroke:none;fill-rule:nonzero;fill:#000000;fill-opacity:1;" d="M 251.875 56.742188 L 129.871094 178.75 C 128.226562 180.390625 127.1875 182.527344 126.914062 184.773438 L 118.917969 243.476562 C 117.988281 250.265625 123.683594 256.070312 130.527344 255.359375 L 190.488281 248.679688 C 192.898438 248.40625 195.089844 247.363281 196.789062 245.667969 L 318.792969 123.714844 C 337.191406 105.261719 337.191406 75.195312 318.792969 56.742188 C 300.722656 37.90625 269.5625 39.601562 251.875 56.742188 Z M 303.898438 71.636719 C 314.304688 82.042969 314.304688 98.359375 303.898438 108.820312 L 292.726562 119.992188 L 255.601562 82.808594 L 266.714844 71.636719 C 278.929688 59.425781 293.988281 61.726562 303.898438 71.636719 Z M 240.707031 97.648438 L 277.886719 134.832031 L 184.519531 228.199219 L 141.589844 232.960938 L 147.230469 191.125 Z M 240.707031 97.648438 "/></g></svg>