<svg xmlns="http://www.w3.org/2000/svg" xmlns:xlink="http://www.w3.org/1999/xlink" width="500" zoomAndPan="magnify" viewBox="0 0 375 374.999991" height="500" preserveAspectRatio="xMidYMid meet" version="1.2"><defs><clipPath id="b90ea6c9d2"><path d="M 36.953125 36.953125 L 337.703125 36.953125 L 337.703125 337.703125 L 36.953125 337.703125 Z M 36.953125 36.953125 "/></clipPath></defs><g id="12df53ddef"><path style=" stroke:none;fill-rule:nonzero;fill:#ffa700;fill-opacity:1;" d="M 133.027344 164.449219 L 158.292969 208.292969 L 245.132812 121.457031 C 248.847656 117.738281 253.835938 115.828125 258.71875 115.828125 C 263.710938 115.828125 268.59375 117.738281 272.308594 121.457031 L 272.414062 121.5625 C 276.128906 125.277344 277.933594 130.160156 277.933594 135.042969 C 277.933594 139.925781 276.023438 144.917969 272.308594 148.632812 L 167.636719 253.304688 C 167.527344 253.410156 167.421875 253.519531 167.421875 253.519531 C 163.707031 257.128906 158.929688 258.824219 154.046875 258.824219 C 147.570312 258.824219 141.730469 255.640625 138.121094 250.332031 C 137.484375 249.378906 136.953125 248.316406 136.53125 247.253906 L 99.480469 183.242188 C 95.023438 175.382812 96.402344 167.953125 100.648438 162.539062 C 102.347656 160.417969 104.363281 158.71875 106.59375 157.445312 C 108.929688 156.167969 111.476562 155.214844 114.023438 154.894531 C 120.925781 153.835938 128.355469 156.277344 132.816406 164.027344 C 132.816406 164.132812 132.921875 164.34375 133.027344 164.449219 Z M 133.027344 164.449219 "/><g clip-rule="nonzero" clip-path="url(#b90ea6c9d2)"><path style=" stroke:none;fill-rule:evenodd;fill:#ffa700;fill-opacity:1;" d="M 187.378906 36.953125 C 270.398438 36.953125 337.703125 104.257812 337.703125 187.378906 C 337.703125 270.398438 270.398438 337.703125 187.378906 337.703125 C 104.257812 337.703125 36.953125 270.398438 36.953125 187.378906 C 36.953125 104.257812 104.257812 36.953125 187.378906 36.953125 Z M 187.378906 49.691406 C 263.390625 49.691406 324.964844 111.371094 324.964844 187.378906 C 324.964844 263.390625 263.390625 324.964844 187.378906 324.964844 C 111.371094 324.964844 49.691406 263.390625 49.691406 187.378906 C 49.691406 111.371094 111.371094 49.691406 187.378906 49.691406 Z M 187.378906 49.691406 "/></g><path style=" stroke:none;fill-rule:evenodd;fill:#c37e08;fill-opacity:1;" d="M 187.378906 45.445312 C 265.726562 45.445312 329.210938 108.929688 329.210938 187.378906 C 329.210938 265.726562 265.726562 329.210938 187.378906 329.210938 C 108.929688 329.210938 45.445312 265.726562 45.445312 187.378906 C 45.445312 108.929688 108.929688 45.445312 187.378906 45.445312 Z M 187.378906 49.691406 C 263.390625 49.691406 324.964844 111.371094 324.964844 187.378906 C 324.964844 263.390625 263.390625 324.964844 187.378906 324.964844 C 111.371094 324.964844 49.691406 263.390625 49.691406 187.378906 C 49.691406 111.371094 111.371094 49.691406 187.378906 49.691406 Z M 187.378906 49.691406 "/></g></svg>